<?xml version="1.0" encoding="UTF-8"?>
<svg id="_图层_1" data-name="图层 1" xmlns="http://www.w3.org/2000/svg" xmlns:xlink="http://www.w3.org/1999/xlink" viewBox="0 0 227 210.5">
  <defs>
    <style>
      .cls-1 {
        fill: url(#_未命名的渐变_23973);
      }

      .cls-1, .cls-2, .cls-3, .cls-4, .cls-5, .cls-6, .cls-7, .cls-8, .cls-9, .cls-10, .cls-11, .cls-12, .cls-13, .cls-14, .cls-15, .cls-16, .cls-17, .cls-18, .cls-19, .cls-20, .cls-21, .cls-22, .cls-23, .cls-24, .cls-25, .cls-26, .cls-27, .cls-28, .cls-29, .cls-30 {
        stroke-width: 0px;
      }

      .cls-2 {
        fill: url(#_未命名的渐变_23964);
      }

      .cls-3 {
        fill: url(#_未命名的渐变_23968);
      }

      .cls-4 {
        fill: url(#_未命名的渐变_1048);
      }

      .cls-5 {
        fill: url(#_未命名的渐变_23979);
      }

      .cls-6 {
        fill: url(#_未命名的渐变_23963);
      }

      .cls-7 {
        fill: url(#_未命名的渐变_23975);
      }

      .cls-8 {
        fill: url(#_未命名的渐变_23982);
      }

      .cls-9 {
        fill: url(#_未命名的渐变_23974);
      }

      .cls-10 {
        fill: url(#_未命名的渐变_23955);
      }

      .cls-11 {
        fill: url(#_未命名的渐变_23958);
      }

      .cls-12 {
        fill: url(#_未命名的渐变_23981);
      }

      .cls-13 {
        fill: url(#_未命名的渐变_23961);
      }

      .cls-14 {
        fill: url(#_未命名的渐变_23956);
      }

      .cls-15 {
        fill: url(#_未命名的渐变_23959);
      }

      .cls-16 {
        fill: url(#_未命名的渐变_23967);
      }

      .cls-17 {
        fill: url(#_未命名的渐变_23980);
      }

      .cls-18 {
        fill: url(#_未命名的渐变_23966);
      }

      .cls-19 {
        fill: url(#_未命名的渐变_18212);
      }

      .cls-20 {
        fill: url(#_未命名的渐变_23971);
      }

      .cls-21 {
        fill: url(#_未命名的渐变_23970);
      }

      .cls-22 {
        fill: url(#_未命名的渐变_23960);
      }

      .cls-23 {
        fill: url(#_未命名的渐变_23969);
      }

      .cls-24 {
        fill: url(#_未命名的渐变_23977);
      }

      .cls-25 {
        fill: url(#_未命名的渐变_23962);
      }

      .cls-26 {
        fill: url(#_未命名的渐变_23978);
      }

      .cls-27 {
        fill: url(#_未命名的渐变_23965);
      }

      .cls-28 {
        fill: url(#_未命名的渐变_23957);
      }

      .cls-29 {
        fill: url(#_未命名的渐变_23972);
      }

      .cls-30 {
        fill: url(#_未命名的渐变_23976);
      }
    </style>
    <linearGradient id="_未命名的渐变_1048" data-name="未命名的渐变 1048" x1="113.5" y1="76" x2="113.5" y2="133.6974" gradientUnits="userSpaceOnUse">
      <stop offset="0" stop-color="#47b89f"/>
      <stop offset="1" stop-color="#b6db82"/>
    </linearGradient>
    <linearGradient id="_未命名的渐变_23982" data-name="未命名的渐变 23982" x1="111.6144" y1="70.0844" x2="115.451" y2="140.8454" gradientUnits="userSpaceOnUse">
      <stop offset="0" stop-color="#47b59c"/>
      <stop offset="1" stop-color="#b0d882"/>
    </linearGradient>
    <linearGradient id="_未命名的渐变_23981" data-name="未命名的渐变 23981" x1="109.1175" y1="64.5805" x2="118.1352" y2="147.4969" gradientUnits="userSpaceOnUse">
      <stop offset="0" stop-color="#47b19a"/>
      <stop offset="1" stop-color="#a9d582"/>
    </linearGradient>
    <linearGradient id="_未命名的渐变_23980" data-name="未命名的渐变 23980" x1="106.0674" y1="59.5535" x2="121.4804" y2="153.5684" gradientUnits="userSpaceOnUse">
      <stop offset="0" stop-color="#46ae97"/>
      <stop offset="1" stop-color="#a3d182"/>
    </linearGradient>
    <linearGradient id="_未命名的渐变_23979" data-name="未命名的渐变 23979" x1="102.5288" y1="55.0611" x2="125.4045" y2="158.9867" gradientUnits="userSpaceOnUse">
      <stop offset="0" stop-color="#46ab94"/>
      <stop offset="1" stop-color="#9dce82"/>
    </linearGradient>
    <linearGradient id="_未命名的渐变_23978" data-name="未命名的渐变 23978" x1="98.5722" y1="51.1528" x2="129.8178" y2="163.6894" gradientUnits="userSpaceOnUse">
      <stop offset="0" stop-color="#46a892"/>
      <stop offset="1" stop-color="#97cb82"/>
    </linearGradient>
    <linearGradient id="_未命名的渐变_23977" data-name="未命名的渐变 23977" x1="94.2734" y1="47.8691" x2="134.6242" y2="167.6262" gradientUnits="userSpaceOnUse">
      <stop offset="0" stop-color="#46a48f"/>
      <stop offset="1" stop-color="#90c882"/>
    </linearGradient>
    <linearGradient id="_未命名的渐变_23976" data-name="未命名的渐变 23976" x1="89.7116" y1="45.2413" x2="139.7224" y2="170.7589" gradientUnits="userSpaceOnUse">
      <stop offset="0" stop-color="#45a18c"/>
      <stop offset="1" stop-color="#8ac582"/>
    </linearGradient>
    <linearGradient id="_未命名的渐变_23975" data-name="未命名的渐变 23975" x1="84.969" y1="43.2907" x2="145.0079" y2="173.0625" gradientUnits="userSpaceOnUse">
      <stop offset="0" stop-color="#459e89"/>
      <stop offset="1" stop-color="#84c282"/>
    </linearGradient>
    <linearGradient id="_未命名的渐变_23974" data-name="未命名的渐变 23974" x1="80.1291" y1="42.029" x2="150.3742" y2="174.5254" gradientUnits="userSpaceOnUse">
      <stop offset="0" stop-color="#459b87"/>
      <stop offset="1" stop-color="#7ebe82"/>
    </linearGradient>
    <linearGradient id="_未命名的渐变_23973" data-name="未命名的渐变 23973" x1="75.2756" y1="41.4576" x2="155.715" y2="175.149" gradientUnits="userSpaceOnUse">
      <stop offset="0" stop-color="#459784"/>
      <stop offset="1" stop-color="#77bb82"/>
    </linearGradient>
    <linearGradient id="_未命名的渐变_23972" data-name="未命名的渐变 23972" x1="70.4914" y1="41.5679" x2="160.9254" y2="174.9482" gradientUnits="userSpaceOnUse">
      <stop offset="0" stop-color="#449481"/>
      <stop offset="1" stop-color="#71b882"/>
    </linearGradient>
    <linearGradient id="_未命名的渐变_23971" data-name="未命名的渐变 23971" x1="65.8571" y1="42.3416" x2="165.9038" y2="173.9507" gradientUnits="userSpaceOnUse">
      <stop offset="0" stop-color="#44917f"/>
      <stop offset="1" stop-color="#6bb582"/>
    </linearGradient>
    <linearGradient id="_未命名的渐变_23970" data-name="未命名的渐变 23970" x1="61.4502" y1="43.7508" x2="170.5532" y2="172.1968" gradientUnits="userSpaceOnUse">
      <stop offset="0" stop-color="#448d7c"/>
      <stop offset="1" stop-color="#64b282"/>
    </linearGradient>
    <linearGradient id="_未命名的渐变_23969" data-name="未命名的渐变 23969" x1="57.3433" y1="45.7585" x2="174.6901" y2="169.64" gradientUnits="userSpaceOnUse">
      <stop offset="0" stop-color="#448a79"/>
      <stop offset="1" stop-color="#5eaf82"/>
    </linearGradient>
    <linearGradient id="_未命名的渐变_23968" data-name="未命名的渐变 23968" x1="53.6036" y1="48.3193" x2="178.4315" y2="166.5626" gradientUnits="userSpaceOnUse">
      <stop offset="0" stop-color="#438777"/>
      <stop offset="1" stop-color="#58ab82"/>
    </linearGradient>
    <linearGradient id="_未命名的渐变_23967" data-name="未命名的渐变 23967" x1="50.2912" y1="51.38" x2="181.6033" y2="162.9176" gradientUnits="userSpaceOnUse">
      <stop offset="0" stop-color="#438474"/>
      <stop offset="1" stop-color="#52a882"/>
    </linearGradient>
    <linearGradient id="_未命名的渐变_23966" data-name="未命名的渐变 23966" x1="47.4584" y1="54.8804" x2="184.1435" y2="158.7857" gradientUnits="userSpaceOnUse">
      <stop offset="0" stop-color="#438071"/>
      <stop offset="1" stop-color="#4ba582"/>
    </linearGradient>
    <linearGradient id="_未命名的渐变_23965" data-name="未命名的渐变 23965" x1="45.1484" y1="58.7542" x2="186.0655" y2="154.2984" gradientUnits="userSpaceOnUse">
      <stop offset="0" stop-color="#437d6f"/>
      <stop offset="1" stop-color="#45a282"/>
    </linearGradient>
    <linearGradient id="_未命名的渐变_23964" data-name="未命名的渐变 23964" x1="43.3942" y1="62.9303" x2="187.3775" y2="149.5622" gradientUnits="userSpaceOnUse">
      <stop offset="0" stop-color="#427a6c"/>
      <stop offset="1" stop-color="#3f9f82"/>
    </linearGradient>
    <linearGradient id="_未命名的渐变_23963" data-name="未命名的渐变 23963" x1="42.2174" y1="67.3338" x2="188.0633" y2="144.6564" gradientUnits="userSpaceOnUse">
      <stop offset="0" stop-color="#427669"/>
      <stop offset="1" stop-color="#389c82"/>
    </linearGradient>
    <linearGradient id="_未命名的渐变_23962" data-name="未命名的渐变 23962" x1="41.6271" y1="71.8873" x2="188.1268" y2="139.6653" gradientUnits="userSpaceOnUse">
      <stop offset="0" stop-color="#427367"/>
      <stop offset="1" stop-color="#329882"/>
    </linearGradient>
    <linearGradient id="_未命名的渐变_23961" data-name="未命名的渐变 23961" x1="42.3673" y1="76.8113" x2="187.5906" y2="134.6735" gradientUnits="userSpaceOnUse">
      <stop offset="0" stop-color="#427064"/>
      <stop offset="1" stop-color="#2c9582"/>
    </linearGradient>
    <linearGradient id="_未命名的渐变_23960" data-name="未命名的渐变 23960" x1="42.6378" y1="81.2907" x2="186.4963" y2="129.7623" gradientUnits="userSpaceOnUse">
      <stop offset="0" stop-color="#416d61"/>
      <stop offset="1" stop-color="#269282"/>
    </linearGradient>
    <linearGradient id="_未命名的渐变_23959" data-name="未命名的渐变 23959" x1="43.3152" y1="85.6941" x2="184.9083" y2="125.0072" gradientUnits="userSpaceOnUse">
      <stop offset="0" stop-color="#41695e"/>
      <stop offset="1" stop-color="#1f8f82"/>
    </linearGradient>
    <linearGradient id="_未命名的渐变_23958" data-name="未命名的渐变 23958" x1="44.4682" y1="89.9996" x2="182.9691" y2="120.486" gradientUnits="userSpaceOnUse">
      <stop offset="0" stop-color="#41665c"/>
      <stop offset="1" stop-color="#198c82"/>
    </linearGradient>
    <linearGradient id="_未命名的渐变_23957" data-name="未命名的渐变 23957" x1="46.0623" y1="94.1526" x2="180.8962" y2="116.2575" gradientUnits="userSpaceOnUse">
      <stop offset="0" stop-color="#416359"/>
      <stop offset="1" stop-color="#138982"/>
    </linearGradient>
    <linearGradient id="_未命名的渐变_23956" data-name="未命名的渐变 23956" x1="48.0381" y1="98.1029" x2="178.8427" y2="112.3288" gradientUnits="userSpaceOnUse">
      <stop offset="0" stop-color="#406056"/>
      <stop offset="1" stop-color="#0d8582"/>
    </linearGradient>
    <linearGradient id="_未命名的渐变_23955" data-name="未命名的渐变 23955" x1="50.1198" y1="101.7998" x2="176.8669" y2="108.6718" gradientUnits="userSpaceOnUse">
      <stop offset="0" stop-color="#405c54"/>
      <stop offset="1" stop-color="#068282"/>
    </linearGradient>
    <linearGradient id="_未命名的渐变_18212" data-name="未命名的渐变 18212" x1="52" y1="105.25" x2="175" y2="105.25" gradientUnits="userSpaceOnUse">
      <stop offset="0" stop-color="#405951"/>
      <stop offset="1" stop-color="#007f82"/>
    </linearGradient>
  </defs>
  <path class="cls-4" d="M219.1918,77c3.7541,0,6.8082,3.0542,6.8082,6.8083v42.0809c0,3.7541-3.0542,6.8082-6.8082,6.8082H7.8083c-3.7541,0-6.8083-3.0542-6.8083-6.8082v-42.0809c0-3.7541,3.0542-6.8083,6.8083-6.8083h211.3835M219.1918,76H7.8083c-4.3124,0-7.8083,3.4959-7.8083,7.8083v42.0809c0,4.3124,3.4959,7.8082,7.8083,7.8082h211.3835c4.3124,0,7.8082-3.4959,7.8082-7.8082v-42.0809c0-4.3124-3.4959-7.8083-7.8082-7.8083h0Z"/>
  <path class="cls-8" d="M113.5,74.3793c4.1315,0,95.8666.4104,102.9223.9764l.0305.0522.533.0326c3.5503.2167,6.2971,3.1999,6.9919,7.5533.0754.9165.2292,20.6741.2292,21.8687s-.1538,20.9522-.2232,21.8222c-.7007,4.4-3.4475,7.3831-6.9978,7.5999l-.5331.0326-.0305.0522c-7.0556.566-98.7908.9764-102.9223.9764s-95.8667-.4104-102.9223-.9764l-.0305-.0522-.5331-.0326c-3.5503-.2167-6.2971-3.1999-6.9918-7.5533-.0755-.9164-.2292-20.674-.2292-21.8687,0-.1938.0251-20.4312.0371-20.951.2258-3.879,3.0767-6.8877,6.6314-6.9986l.8058-.0251.0379-.2051c7.8798-1.2673,99.289-2.3033,103.1948-2.3033M113.5,73.3793c-.9482,0-103.7982,1.0649-104.0696,2.5341-4.1878.1306-7.3486,3.647-7.5985,7.94-.0131.2258-.0387,20.7717-.0387,21.0091,0,.6.1538,21.4651.2357,21.9795.7076,4.4431,3.6067,8.1771,7.9244,8.4407.3838.6568,102.9611,1.063,103.5468,1.063s103.163-.4062,103.5468-1.063c4.3177-.2636,7.2168-3.9977,7.9244-8.4407.0819-.5144.2357-21.3795.2357-21.9795s-.1538-21.4651-.2357-21.9795c-.7076-4.4431-3.6067-8.1771-7.9244-8.4407-.3838-.6568-102.9612-1.063-103.5468-1.063h0Z"/>
  <path class="cls-12" d="M113.5,71.7586c4.0163,0,94.2963.8241,100.7292,1.9572l.0593.1014.4922.06c3.5823.4368,6.3989,3.6743,7.1744,8.2392.1568,1.1436.4587,20.9227.4587,22.7599s-.3019,21.6162-.4573,22.7511c-.7768,4.5737-3.5935,7.8112-7.1757,8.248l-.4922.06-.0593.1015c-6.4329,1.1331-96.713,1.9572-100.7292,1.9572s-94.2963-.8241-100.7292-1.9572l-.0593-.1015-.4922-.06c-3.5822-.4368-6.3989-3.6743-7.1744-8.2392-.1568-1.1436-.4587-20.9227-.4587-22.7599,0-1.1882.0511-20.2871.0757-20.9178.2308-3.8451,3.0057-6.912,6.4548-7.1338l.7776-.05.0712-.3857c6.6174-2.5403,97.7-4.6304,101.5344-4.6304M113.5,70.7586c-1.8964,0-101.9047,2.1299-102.4475,5.0682-4.0632.2613-7.1319,3.7913-7.3888,8.0718-.0271.4514-.0775,20.5029-.0775,20.9777,0,1.2.297,21.8916.4714,22.9185.785,4.6216,3.7176,8.5461,8.0406,9.0732.7675,1.3136,100.2305,2.126,101.4018,2.126s100.6342-.8124,101.4018-2.126c4.323-.5271,7.2556-4.4516,8.0406-9.0732.1744-1.027.4714-21.7185.4714-22.9185s-.297-21.8916-.4714-22.9185c-.785-4.6216-3.7176-8.5461-8.0406-9.0732-.7675-1.3136-100.2306-2.126-101.4018-2.126h0Z"/>
  <path class="cls-17" d="M113.5,69.1379c3.9154,0,92.6348,1.2412,98.5397,2.944l.0854.1461.4519.0826c3.6137.6602,6.4996,4.1532,7.3523,8.8988.2416,1.3446.6914,21.041.6914,23.6808s-.4498,22.3362-.6914,23.6808c-.8526,4.7456-3.7386,8.2386-7.3523,8.8988l-.4519.0826-.0854.1461c-5.9049,1.7029-94.6243,2.944-98.5397,2.944s-92.6348-1.2412-98.5398-2.944l-.0854-.1461-.4519-.0826c-3.6137-.6602-6.4996-4.1532-7.3522-8.8988-.2415-1.3444-.6914-21.0409-.6914-23.6807,0-1.1717.0768-20.1729.1143-20.8846.2396-3.8744,2.8807-6.932,6.28-7.2703l.7478-.0744.098-.5305c1.1619-.7857,8.6019-2.6942,50.3277-4.9302,23.9086-1.2812,48.0677-2.0622,49.5528-2.0622M212.208,137.6405s.0002,0,0,0c0,0,0,0,0,0M113.5,68.1379c-2.8446,0-100.0112,3.1949-100.8254,7.6022-3.9387.3919-6.9151,3.9356-7.1791,8.2037-.0419.6771-.1162,20.2342-.1162,20.9464,0,1.8.4308,22.3197.7071,23.8576.8626,4.8014,3.8285,8.9149,8.1568,9.7057,1.1513,1.9703,97.5,3.189,99.2568,3.189s98.1055-1.2187,99.2568-3.189c4.3283-.7907,7.2942-4.9042,8.1568-9.7057.2763-1.5379.7072-22.0576.7072-23.8576s-.4309-22.3197-.7072-23.8576c-.8626-4.8014-3.8285-8.9149-8.1568-9.7057-1.1513-1.9703-97.4999-3.189-99.2568-3.189h0Z"/>
  <path class="cls-5" d="M113.5,66.5172c6.741,0,91.0683,1.7314,96.3545,3.9382l.1081.1851.4127.1004c3.7003.9003,6.5844,4.5604,7.5267,9.552.3581,1.897.9255,22.1443.9255,24.6111s-.5674,22.7141-.9255,24.6111c-.9423,4.9917-3.8264,8.6518-7.5267,9.552l-.4127.1004-.1081.1851c-5.2862,2.2067-89.6135,3.9382-96.3545,3.9382s-91.0777-1.7313-96.3545-3.9382l-.1081-.1851-.4127-.1004c-3.7004-.9003-6.5844-4.5603-7.5267-9.552-.3581-1.8969-.9255-22.1442-.9255-24.6111,0-1.1831.1003-20.025.153-20.8515.2446-3.8413,2.8131-6.9569,6.1071-7.4083l.7163-.0981.1177-.6371c.6436-.7982,6.1561-3.4822,48.8534-6.6161,23.7164-1.7407,47.6329-2.7758,49.3801-2.7758M209.9641,139.3007s.0002-.0001,0,0h0M113.5,65.5172c-3.7927,0-98.1177,4.2598-99.2033,10.1363-3.8141.5226-6.6983,4.0798-6.9693,8.3354-.0575.9027-.155,19.9654-.155,20.915,0,2.4.5564,22.7494.9429,24.7966.9405,4.9826,3.9393,9.2839,8.2729,10.3382,1.5351,2.6271,94.7694,4.252,97.1118,4.252s95.5767-1.6249,97.1118-4.252c4.3336-1.0543,7.3324-5.3556,8.273-10.3382.3864-2.0472.9428-22.3966.9428-24.7966s-.5564-22.7494-.9428-24.7966c-.9406-4.9826-3.9393-9.2839-8.273-10.3382-1.5351-2.6271-94.7694-4.252-97.1118-4.252h0Z"/>
  <path class="cls-26" d="M113.5,63.8965c6.5925,0,89.3628,2.1738,94.174,4.9403l.1272.2177.3751.1139c3.7304,1.133,6.6803,5.0443,7.6986,10.2073.4858,2.4628,1.1597,22.5833,1.1597,25.5422s-.6739,23.0794-1.1597,25.5422c-1.0182,5.163-3.9682,9.0742-7.6986,10.2073l-.375.1139-.1272.2177c-4.8111,2.7664-87.5815,4.9403-94.174,4.9403s-89.3628-2.1738-94.174-4.9403l-.1272-.2177-.375-.1139c-3.7304-1.1331-6.6804-5.0443-7.6987-10.2073-.4858-2.4629-1.1596-22.5833-1.1596-25.5422,0-1.7321.1233-19.7758.1916-20.8183.2496-3.8088,2.7461-6.9831,5.9361-7.5479l.6824-.1182.126-.6821c.054-.1953.9236-1.9756,14.6374-4.3289,7.9056-1.3566,18.7596-2.694,32.2606-3.9749,23.3686-2.2172,47.1596-3.551,49.7003-3.551M113.5,62.8965c-4.7409,0-96.2242,5.3248-97.5811,12.6704-3.6895.6532-6.4815,4.2239-6.7596,8.4672-.0739,1.1282-.1937,19.6966-.1937,20.8837,0,3,.6746,23.1807,1.1785,25.7357,1.0186,5.1647,4.0502,9.6527,8.3891,10.9707,1.9188,3.2839,92.0387,5.315,94.9668,5.315s93.048-2.0311,94.9668-5.315c4.3389-1.3179,7.3705-5.8059,8.3891-10.9707.504-2.555,1.1786-22.7357,1.1786-25.7357s-.6746-23.1807-1.1786-25.7357c-1.0186-5.1647-4.0502-9.6528-8.3891-10.9707-1.9188-3.2839-92.0388-5.315-94.9668-5.315h0Z"/>
  <path class="cls-24" d="M113.5,61.2759c1.8042,0,23.8966.6001,45.8917,1.665,38.788,1.8781,45.1962,3.6054,46.1077,4.2877l.1411.2415.3392.1235c3.7592,1.3685,6.774,5.5315,7.8678,10.8644.6085,2.9666,1.3939,23.0755,1.3939,26.4738s-.7854,23.5072-1.3939,26.4738c-1.0938,5.3329-4.1086,9.4959-7.8678,10.8644l-.3392.1235-.1411.2415c-.9115.6823-7.3197,2.4096-46.1077,4.2877-21.9951,1.065-44.0875,1.665-45.8917,1.665s-23.8966-.6001-45.8917-1.665c-38.788-1.8781-45.1962-3.6054-46.1077-4.2877l-.1411-.2415-.3392-.1235c-3.7592-1.3685-6.7739-5.5315-7.8678-10.8644-.6085-2.9666-1.3939-23.0755-1.3939-26.4738,0-1.7134.1447-19.5161.2302-20.7851.2545-3.7769,2.6798-7.0108,5.7669-7.6896l.6481-.1425.1205-.6525c.211-1.1421,4.1221-5.2454,45.5895-10.0962,23.3221-2.7282,46.6642-4.2899,49.3861-4.2899M113.5,60.2759c-5.6891,0-94.3307,6.3897-95.959,15.2045-3.565.7839-6.2648,4.368-6.5499,8.599-.0912,1.3537-.2325,19.4279-.2325,20.8523,0,3.6.7864,23.6134,1.4143,26.6747,1.0969,5.3479,4.1611,10.0217,8.5053,11.6031,2.3026,3.9406,89.3081,6.378,92.8218,6.378s90.5192-2.4374,92.8218-6.378c4.3443-1.5815,7.4084-6.2552,8.5053-11.6031.6279-3.0613,1.4143-23.0747,1.4143-26.6747s-.7864-23.6134-1.4143-26.6747c-1.0969-5.3479-4.1611-10.0217-8.5053-11.6031-2.3026-3.9406-89.3081-6.378-92.8218-6.378h0Z"/>
  <path class="cls-30" d="M113.5,58.6552c1.8949,0,23.3031.6807,45.1493,1.956,38.9503,2.2738,44.0562,4.4014,44.682,5.0202l.1495.2558.3055.1296c3.7866,1.6062,6.865,6.0215,8.0338,11.5229.724,3.4076,1.6281,22.8497,1.6281,27.4059s-.9041,23.9984-1.6281,27.4059c-1.1689,5.5013-4.2473,9.9166-8.0338,11.5229l-.3055.1296-.1495.2558c-.6258.6188-5.7317,2.7464-44.682,5.0202-21.8463,1.2753-43.2544,1.956-45.1493,1.956s-23.3031-.6807-45.1494-1.956c-38.9503-2.2738-44.0562-4.4014-44.682-5.0202l-.1495-.2558-.3055-.1296c-3.7866-1.6062-6.8649-6.0215-8.0338-11.5229-.724-3.4077-1.6281-22.8498-1.6281-27.4059,0-1.5316.1634-19.2296.2689-20.7519.2636-3.8059,2.5661-7.0272,5.5994-7.8335l.6115-.1626.1149-.6222c.253-1.3695,4.213-6.2761,44.547-11.9171,22.6928-3.1738,45.6646-5.0032,48.8065-5.0032M113.5,57.6552c-6.6373,0-92.4372,7.4547-94.3369,17.7386-3.4404.9145-6.048,4.5121-6.3401,8.7308-.1094,1.5791-.2712,19.1591-.2712,20.821,0,4.2.8923,24.0475,1.65,27.6138,1.1754,5.5319,4.2719,10.3906,8.6215,12.2356,2.6864,4.5974,86.5776,7.441,90.6768,7.441s87.9904-2.8436,90.6768-7.441c4.3496-1.8451,7.4461-6.7038,8.6215-12.2356.7578-3.5663,1.65-23.4138,1.65-27.6138s-.8922-24.0475-1.65-27.6137c-1.1754-5.5319-4.2719-10.3906-8.6215-12.2356-2.6864-4.5974-86.5775-7.441-90.6768-7.441h0Z"/>
  <path class="cls-7" d="M113.5,56.0345c2.531,0,23.7129.8218,44.4858,2.2574,38.0828,2.6318,42.6848,5.074,43.1826,5.7511l.1536.2629.274.1327c3.8703,1.874,6.9344,6.4281,8.1967,12.1823.8726,3.9781,1.8624,23.5062,1.8624,28.3386s-.9898,24.3604-1.8624,28.3385c-1.2622,5.7542-4.3264,10.3083-8.1967,12.1823l-.2685.124-.1536.2628c-.5033.6858-5.1054,3.1281-43.1882,5.7599-20.7728,1.4356-41.9548,2.2574-44.4858,2.2574s-23.7129-.8218-44.4858-2.2574c-38.0828-2.6318-42.6848-5.074-43.1827-5.7512l-.1536-.2629-.274-.1327c-3.8703-1.874-6.9344-6.4281-8.1967-12.1823-.8726-3.9782-1.8625-23.5062-1.8625-28.3385,0-1.8964.1817-18.9508.3075-20.7187.2685-3.7747,2.5029-7.0561,5.4336-7.9798l.5735-.1808.1092-.5913c.3785-2.0489,5.3754-7.4891,43.5054-13.7385,21.3397-3.4975,44.2627-5.7158,48.226-5.7158M113.5,55.0345c-7.5855,0-90.5436,8.5197-92.7148,20.2727-3.3158,1.0451-5.8312,4.6561-6.1304,8.8626-.1283,1.8044-.31,18.8904-.31,20.7896,0,4.8.9929,24.4828,1.8857,28.5528,1.254,5.7166,4.3828,10.7595,8.7377,12.8681,3.0702,5.2542,83.8469,8.504,88.5318,8.504s85.4617-3.2498,88.5318-8.504c4.3549-2.1086,7.4837-7.1514,8.7377-12.8681.8928-4.0699,1.8857-23.7528,1.8857-28.5528s-.9929-24.4828-1.8857-28.5528c-1.254-5.7166-4.3828-10.7595-8.7377-12.8681-3.0702-5.2542-83.847-8.504-88.5318-8.504h0Z"/>
  <path class="cls-9" d="M113.5,53.4138c2.2892,0,22.5894.8544,43.7943,2.5637,36.9309,2.9768,41.2768,5.7338,41.7292,6.5078l.1406.2407.2448.1332c3.8951,2.1192,7.019,6.9201,8.3563,12.8424,1.0306,4.5641,2.0968,24.127,2.0968,29.2716s-1.0662,24.7075-2.0968,29.2716c-1.3373,5.9224-4.4612,10.7233-8.3563,12.8424l-.2449.1332-.1406.2407c-.4523.7741-4.7983,3.5311-41.7292,6.5079-21.2048,1.7092-41.5051,2.5636-43.7943,2.5636s-22.5895-.8544-43.7943-2.5636c-36.9309-2.9768-41.2768-5.7338-41.7292-6.5079l-.1406-.2407-.2449-.1332c-3.8951-2.1192-7.0189-6.92-8.3563-12.8424-1.0306-4.5641-2.0968-24.127-2.0968-29.2716,0-2.3623.2062-18.7695.3461-20.6855.2734-3.7439,2.4401-7.0866,5.2691-8.1289l.5342-.1968.1034-.5599c.4332-2.345,5.4382-8.5557,42.4647-15.5608,21.1388-3.9993,43.469-6.4276,47.6446-6.4276M113.5,52.4138c-8.5337,0-88.6501,9.5846-91.0926,22.8068-3.1913,1.1758-5.6144,4.8001-5.9207,8.9944-.1482,2.0297-.3488,18.6216-.3488,20.7583,0,5.4,1.0889,24.9194,2.1214,29.4918,1.3328,5.9021,4.4937,11.1284,8.8538,13.5006,3.4539,5.911,81.1163,9.567,86.3868,9.567s82.9329-3.656,86.3868-9.567c4.3602-2.3722,7.5211-7.5985,8.8538-13.5006,1.0325-4.5724,2.1214-24.0918,2.1214-29.4918s-1.0889-24.9194-2.1214-29.4919c-1.3327-5.9021-4.4937-11.1284-8.8538-13.5006-3.4539-5.911-81.1163-9.567-86.3868-9.567h0Z"/>
  <path class="cls-1" d="M113.5,50.7931c2.9889,0,22.9229,1.01,42.7857,2.8478,35.6417,3.2978,40.0811,6.4111,40.5927,7.2867l.1285.2199.218.1317c3.9185,2.3659,7.1008,7.4137,8.5127,13.5028,1.1366,4.9019,2.3313,24.0365,2.3313,30.205s-1.1947,25.3032-2.3313,30.205c-1.4119,6.0892-4.5942,11.137-8.5127,13.5028l-.218.1317-.1285.2199c-.5117.8756-4.951,3.9889-40.5927,7.2867-19.8628,1.8378-39.7968,2.8478-42.7857,2.8478s-22.9229-1.01-42.7857-2.8478c-35.6417-3.2978-40.0811-6.4111-40.5928-7.2867l-.1285-.2199-.2181-.1316c-3.9185-2.3659-7.1008-7.4137-8.5127-13.5029-1.1366-4.9019-2.3313-24.0365-2.3313-30.205,0-2.6298.2222-18.4828.3847-20.6522.2827-3.7725,2.3345-7.1004,5.1057-8.2809l.4939-.2104.0975-.5279c1.0475-5.6704,15.7591-11.8441,41.4249-17.3838,20.5169-4.4284,42.1307-7.1387,47.0623-7.1387M113.5,49.7931c-9.4819,0-86.7566,10.6496-89.4705,25.3408-3.0667,1.3064-5.3976,4.9441-5.711,9.1262-.1689,2.2549-.3875,18.3528-.3875,20.7269,0,6,1.1807,25.3571,2.3571,30.4309,1.4117,6.0882,4.6045,11.4973,8.97,14.133,3.8377,6.5678,78.3857,10.63,84.2419,10.63s80.4042-4.0623,84.2418-10.63c4.3655-2.6358,7.5584-8.0449,8.97-14.133,1.1765-5.0738,2.3571-24.4309,2.3571-30.4309s-1.1806-25.3571-2.3571-30.4309c-1.4117-6.0882-4.6045-11.4973-8.97-14.1331-3.8377-6.5678-78.3857-10.63-84.2418-10.63h0Z"/>
  <path class="cls-29" d="M113.5,48.1724c3.0903,0,22.2544,1.0768,41.7764,3.1318,33.4139,3.5173,38.7247,6.8123,39.4571,8.0657l.1171.2005.1935.1283c3.9993,2.6529,7.1579,7.8152,8.666,14.1634,1.3253,5.5784,2.5657,24.7852,2.5657,31.1388s-1.2405,25.5604-2.5657,31.1388c-1.5081,6.3481-4.6668,11.5105-8.666,14.1634l-.1935.1283-.1172.2005c-.7324,1.2534-6.0432,4.5484-39.4571,8.0657-19.5219,2.055-38.686,3.1318-41.7764,3.1318s-22.2544-1.0768-41.7764-3.1318c-33.4139-3.5173-38.7247-6.8123-39.4571-8.0657l-.1172-.2005-.1935-.1283c-3.9993-2.6529-7.158-7.8153-8.6661-14.1634-1.3253-5.5784-2.5657-24.7852-2.5657-31.1388,0-2.6093.2385-18.2138.4233-20.6189.2875-3.7422,2.274-7.1324,4.9431-8.4361l.4529-.2212.0916-.4957c1.167-6.3176,15.5098-13.1391,40.3861-19.2078,20.8172-5.0784,41.6236-7.8488,46.479-7.8488M113.5,47.1724c-10.43,0-84.8631,11.7145-87.8484,27.8749-2.9421,1.437-5.1808,5.0879-5.5012,9.258-.1906,2.4801-.4263,18.0841-.4263,20.6955,0,6.6,1.2686,25.7959,2.5928,31.3699,1.4907,6.2748,4.7154,11.8662,9.0862,14.7655,4.2214,7.2246,75.6551,11.693,82.0969,11.693s77.8754-4.4685,82.0969-11.693c4.3708-2.8993,7.5955-8.4907,9.0862-14.7655,1.3242-5.5741,2.5928-24.7699,2.5928-31.3699s-1.2686-25.7958-2.5928-31.3699c-1.4907-6.2748-4.7154-11.8662-9.0862-14.7655-4.2214-7.2245-75.6551-11.693-82.0969-11.693h0Z"/>
  <path class="cls-20" d="M113.5,45.5517c3.4948,0,22.1078,1.1969,40.7661,3.4155,32.1578,3.8238,37.5127,7.4594,38.3223,8.845l.1065.1823.1711.1237c4.0202,2.9057,7.2337,8.3087,8.8164,14.8236,1.4165,5.8307,2.8003,24.5268,2.8003,32.0729s-1.3838,26.2422-2.8003,32.0729c-1.5827,6.5149-4.7962,11.9179-8.8164,14.8236l-.1711.1237-.1065.1823c-.8096,1.3856-6.1646,5.0211-38.3223,8.845-18.6583,2.2186-37.2713,3.4155-40.7661,3.4155s-22.1078-1.1969-40.7662-3.4155c-32.1578-3.8238-37.5127-7.4594-38.3223-8.845l-.1065-.1823-.1711-.1237c-4.0202-2.9057-7.2337-8.3087-8.8164-14.8236-1.4165-5.8308-2.8002-24.5269-2.8002-32.0729,0-2.8745.2523-17.925.4619-20.5857.2923-3.7122,2.2136-7.1661,4.7808-8.5944l.4116-.229.0856-.4632c1.2879-6.9717,15.262-14.4412,39.3481-21.0327,19.0899-5.2242,39.9326-8.558,45.8948-8.558M113.5,44.5517c-11.3782,0-82.9696,12.7795-86.2263,30.409-2.8175,1.5677-4.964,5.2318-5.2915,9.3898-.2131,2.7051-.465,17.8153-.465,20.6642,0,7.2,1.3531,26.2355,2.8285,32.309,1.5699,6.462,4.8263,12.2351,9.2024,15.398,4.6052,7.8813,72.9245,12.756,79.9519,12.756s75.3466-4.8747,79.9519-12.756c4.3761-3.1629,7.6325-8.9361,9.2023-15.398,1.4755-6.0735,2.8285-25.109,2.8285-32.309s-1.353-26.2355-2.8285-32.309c-1.5698-6.462-4.8262-12.2351-9.2023-15.398-4.6052-7.8813-72.9245-12.756-79.9519-12.756h0Z"/>
  <path class="cls-21" d="M113.5,42.931c10.7395,0,72.5786,5.8536,76.9435,13.3235l.0966.1653.1508.1179c4.0399,3.1594,7.3072,8.8029,8.964,15.4835,1.6164,6.5177,3.0348,25.1824,3.0348,33.0073s-1.4184,26.4897-3.0348,33.0074c-1.6568,6.6805-4.9241,12.324-8.964,15.4835l-.1508.1179-.0966.1653c-4.3649,7.4699-66.2039,13.3235-76.9435,13.3235s-72.5787-5.8536-76.9435-13.3235l-.0966-.1653-.1508-.1179c-4.04-3.1595-7.3072-8.803-8.964-15.4835-1.6164-6.5177-3.0348-25.1824-3.0348-33.0074,0-2.9498.2607-17.5797.5005-20.5525.3018-3.7401,2.1146-7.1771,4.6184-8.7561l.3704-.2336.0795-.4306c1.4101-7.6334,15.0159-15.7514,38.3112-22.8587,18.8168-5.7409,39.0717-9.266,45.3096-9.266M113.5,41.931c-12.3264,0-81.0761,13.8445-84.6041,32.9431-2.693,1.6983-4.7472,5.3756-5.0818,9.5216-.2364,2.9301-.5037,17.5466-.5037,20.6329,0,7.8,1.4344,26.6762,3.0642,33.248,1.6491,6.6496,4.9371,12.604,9.3185,16.0305,4.989,8.5381,70.1939,13.819,77.8069,13.819s72.8179-5.2809,77.8069-13.819c4.3815-3.4265,7.6694-9.3809,9.3186-16.0305,1.6299-6.5719,3.0642-25.448,3.0642-33.248s-1.4344-26.6762-3.0642-33.248c-1.6491-6.6496-4.9371-12.604-9.3186-16.0305-4.989-8.5381-70.1939-13.819-77.8069-13.819h0Z"/>
  <path class="cls-23" d="M113.5,40.3103c8.8654,0,68.5192,6.956,74.8971,14.5263,3.6161,4.2921,7.5406,9.5809,9.23,16.2637,1.7732,7.0144,3.2694,25.8375,3.2694,33.942s-1.4963,26.9276-3.2694,33.942c-1.6894,6.6829-5.6138,11.9716-9.23,16.2638-6.378,7.5703-66.0318,14.5263-74.8971,14.5263s-68.5192-6.9561-74.8971-14.5263c-3.6161-4.2921-7.5406-9.5809-9.23-16.2637-1.7732-7.0143-3.2694-25.8375-3.2694-33.942,0-3.4074.2865-17.4625.5391-20.5192.3066-3.7103,2.0555-7.2121,4.4555-8.9212l.3298-.2348.0735-.3981c1.5339-8.3035,14.7718-17.0705,37.275-24.6859,18.9752-6.4215,38.4891-9.9729,44.7236-9.9729M113.5,39.3103c-13.2746,0-79.1826,14.9094-82.982,35.4772-2.5684,1.829-4.5304,5.5193-4.872,9.6534-.2607,3.155-.5425,17.2778-.5425,20.6015,0,8.4,1.5128,27.1177,3.2999,34.1871,1.7285,6.8377,5.7413,12.2791,9.4347,16.663,6.8616,8.1443,67.4633,14.882,75.6619,14.882s68.8003-6.7377,75.6619-14.882c3.6935-4.3839,7.7062-9.8253,9.4347-16.663,1.7871-7.0694,3.2999-25.7871,3.2999-34.1871s-1.5128-27.1177-3.2999-34.1871c-1.7285-6.8377-5.7413-12.2791-9.4347-16.663-6.8616-8.1443-67.4633-14.882-75.6619-14.882h0Z"/>
  <path class="cls-3" d="M113.5,37.6897c8.7491,0,65.9618,7.2497,72.7415,15.5764,3.4075,4.185,7.5505,9.8894,9.3579,16.9133,1.8543,7.2059,3.5041,25.5059,3.5041,34.8769s-1.6498,27.671-3.5041,34.8769c-1.8074,7.0239-5.9504,12.7283-9.3579,16.9133-6.7797,8.3267-63.9923,15.5764-72.7414,15.5764s-65.9618-7.2497-72.7415-15.5764c-3.4075-4.185-7.5505-9.8894-9.3579-16.9133-1.8543-7.2059-3.5041-25.5059-3.5041-34.8769,0-3.5154.2938-17.1292.5777-20.4859.3161-3.7374,1.9605-7.2202,4.2914-9.0893l.2902-.2327.0676-.3658c3.8665-20.9304,65.5004-37.1929,80.3765-37.1929M113.5,36.6897c-14.2228,0-77.289,15.9744-81.3599,38.0112-2.4438,1.9596-4.3136,5.663-4.6623,9.7852-.2859,3.3798-.5813,17.0091-.5813,20.5702,0,9,1.5887,27.56,3.5356,35.1261,1.808,7.0261,5.8197,12.7129,9.5509,17.2955,7.2043,8.8482,64.7327,15.945,73.5169,15.945s66.3126-7.0968,73.5169-15.945c3.7312-4.5826,7.7429-10.2693,9.5509-17.2955,1.947-7.5661,3.5357-26.1261,3.5357-35.1261s-1.5887-27.56-3.5357-35.1261c-1.808-7.0261-5.8197-12.7129-9.5509-17.2954-7.2043-8.8482-64.7327-15.945-73.5169-15.945h0Z"/>
  <path class="cls-16" d="M113.5,35.069c4.5788,0,20.5591,1.8646,36.1833,4.9013,19.1602,3.7239,31.3781,7.8882,34.4032,11.7258,3.4079,4.3232,7.5658,10.2262,9.485,17.562,2.071,7.9163,3.7388,26.0643,3.7388,35.8121s-1.6678,27.8958-3.7388,35.8121c-1.9192,7.3357-6.077,13.2388-9.485,17.562-3.0251,3.8376-15.2431,8.0019-34.4032,11.7258-15.6242,3.0367-31.6046,4.9013-36.1833,4.9013s-20.5591-1.8646-36.1834-4.9013c-19.1601-3.7239-31.3781-7.8882-34.4032-11.7258-3.4079-4.3232-7.5658-10.2263-9.485-17.562-2.071-7.9163-3.7388-26.0643-3.7388-35.8121,0-3.6308.2997-16.795.6163-20.4526.3209-3.7077,1.9018-7.256,4.1258-9.2604l.2522-.2273.0617-.3339c4.2166-22.8259,63.8268-39.727,78.7544-39.727M113.5,34.069c-15.171,0-75.3955,17.0393-79.7378,40.5454-2.3193,2.0902-4.0968,5.8067-4.4526,9.917-.312,3.6045-.62,16.7403-.62,20.5388,0,9.6,1.6621,28.0031,3.7714,36.0652,1.8876,7.215,5.8952,13.1431,9.667,17.928,7.5346,9.5582,62.0021,17.008,71.3719,17.008s63.8373-7.4498,71.3719-17.008c3.7719-4.7849,7.7795-10.713,9.667-17.928,2.1092-8.0621,3.7714-26.4652,3.7714-36.0652s-1.6622-28.003-3.7714-36.0652c-1.8876-7.215-5.8952-13.1431-9.667-17.9279-7.5347-9.5582-62.0022-17.008-71.3719-17.008h0Z"/>
  <path class="cls-18" d="M113.5,32.4483c10.7635,0,60.9889,7.9417,68.4325,17.6783,3.1404,4.1078,7.5534,10.4647,9.6112,18.2099,2.2378,8.4225,3.9735,26.6698,3.9735,36.7474s-1.7357,28.325-3.9735,36.7474c-2.0578,7.7451-6.4708,14.1021-9.6112,18.2099-7.4436,9.7367-57.669,17.6783-68.4325,17.6783s-60.9889-7.9417-68.4325-17.6783c-3.1404-4.1078-7.5534-10.4648-9.6112-18.2099-2.2378-8.4225-3.9735-26.6698-3.9735-36.7474,0-4.068.3166-16.5986.6549-20.4193.3256-3.6781,1.8423-7.293,3.958-9.434l.2162-.2188.0559-.3025c2.5858-13.9976,22.5194-24.9142,34.1714-30.1757,16.7533-7.5649,34.9995-12.0854,42.9609-12.0854M113.5,31.4483c-16.1192,0-73.502,18.1043-78.1156,43.0794-2.1947,2.2209-3.88,5.9503-4.2429,10.0488-.339,3.8291-.6587,16.4715-.6587,20.5075,0,10.2,1.7334,28.4468,4.0071,37.0042,1.9673,7.4041,5.968,13.5699,9.7832,18.5604,7.8538,10.2734,59.2715,18.071,69.2269,18.071s61.3731-7.7976,69.2269-18.071c3.8152-4.9905,7.816-11.1563,9.7832-18.5604,2.2737-8.5574,4.0071-26.8042,4.0071-37.0042s-1.7334-28.4468-4.0071-37.0042c-1.9672-7.4041-5.968-13.5699-9.7832-18.5604-7.8538-10.2734-59.2715-18.071-69.2269-18.071h0Z"/>
  <path class="cls-27" d="M113.5,29.8276c10.5987,0,58.452,8.1897,66.2791,18.7302,3.1361,4.2233,7.5575,10.7728,9.7367,18.857,2.48,9.2,4.2083,27.2434,4.2083,37.683s-1.7283,28.483-4.2083,37.683c-2.1793,8.0842-6.6006,14.6338-9.7367,18.857-7.8271,10.5405-55.6804,18.7302-66.2791,18.7302s-58.452-8.1897-66.2791-18.7302c-3.1361-4.2233-7.5575-10.7729-9.7367-18.857-2.48-9.2-4.2083-27.2434-4.2083-37.683,0-4.0821.3281-16.35.6934-20.386.3353-3.7041,1.7513-7.2966,3.7878-9.6099l.1826-.2074.0502-.2717c2.7639-14.9617,21.9485-26.4765,33.1382-32.0086,16.7987-8.3052,34.3689-12.7866,42.3719-12.7866M113.5,28.8276c-17.0673,0-71.6085,19.1692-76.4935,45.6135-2.0701,2.3515-3.6632,6.0939-4.0331,10.1805-.367,4.0537-.6975,16.2028-.6975,20.4761,0,10.8,1.8026,28.8912,4.2428,37.9433,2.047,7.5936,6.0385,13.9936,9.8994,19.1929,8.163,10.9928,56.5409,19.134,67.082,19.134s58.9189-8.1412,67.0819-19.134c3.8609-5.1993,7.8524-11.5993,9.8994-19.1929,2.4401-9.052,4.2428-27.1433,4.2428-37.9433s-1.8026-28.8913-4.2428-37.9433c-2.047-7.5936-6.0385-13.9936-9.8994-19.1929-8.163-10.9928-56.5409-19.134-67.0819-19.134h0Z"/>
  <path class="cls-2" d="M113.5,27.2069c10.4169,0,55.9155,8.4162,64.1263,19.7826,4.9733,6.8847,8.1069,13.082,9.8616,19.5034,2.6578,9.7264,4.4431,27.821,4.4431,38.6187s-1.7853,28.8923-4.4431,38.6187c-1.7547,6.4214-4.8882,12.6187-9.8616,19.5034-8.2108,11.3664-53.7094,19.7826-64.1263,19.7826s-55.9155-8.4162-64.1264-19.7826c-4.9733-6.8847-8.1069-13.082-9.8616-19.5034-2.6578-9.7264-4.4431-27.8211-4.4431-38.6187,0-4.6798.3545-16.2731.732-20.3527.34-3.6748,1.6913-7.3337,3.6147-9.7876l.1516-.1935.0447-.2418c2.9456-15.9458,21.3795-28.0483,32.1055-33.8432,16.3877-8.8537,33.4238-13.4861,41.7825-13.4861M113.5,26.2069c-18.0155,0-69.715,20.2342-74.8714,48.1476-1.9456,2.4822-3.4464,6.2374-3.8234,10.3123-.3958,4.2781-.7363,15.934-.7363,20.4448,0,11.4,1.87,29.3363,4.4785,38.8823,2.1268,7.7833,6.1068,14.4144,10.0156,19.8254,8.4632,11.7158,53.8103,20.197,64.937,20.197s56.4737-8.4812,64.937-20.197c3.9088-5.411,7.8888-12.0421,10.0156-19.8254,2.6085-9.546,4.4785-27.4823,4.4785-38.8823s-1.87-29.3363-4.4785-38.8823c-2.1268-7.7833-6.1068-14.4144-10.0156-19.8254-8.4632-11.7158-53.8103-20.197-64.937-20.197h0Z"/>
  <path class="cls-6" d="M113.5,24.5862c11.4355,0,53.396,8.6454,61.9742,20.8355,4.8904,6.9495,8.1568,13.5403,9.9858,20.1491,2.6232,9.4781,4.678,26.8525,4.678,39.5546s-2.0548,30.0765-4.678,39.5546c-1.8291,6.6088-5.0954,13.1996-9.9858,20.1491-8.5782,12.1901-50.5387,20.8355-61.9742,20.8355s-53.396-8.6454-61.9742-20.8355c-4.8904-6.9495-8.1568-13.5403-9.9858-20.1491-2.6232-9.4781-4.678-26.8526-4.678-39.5546,0-4.6941.3526-15.8986.7706-20.3193.3498-3.7004,1.6031-7.333,3.4385-9.9665l.1237-.1775.0393-.2127c5.3215-28.807,53.4585-49.8633,72.2659-49.8633M113.5,23.5862c-18.9637,0-67.8215,21.2991-73.2493,50.6817-1.821,2.6128-3.2295,6.3808-3.6137,10.4441-.4256,4.5024-.775,15.6653-.775,20.4134,0,12,1.9357,29.7819,4.7142,39.8214,2.2067,7.9733,6.1733,14.8326,10.1318,20.4579,8.7553,12.4418,51.0797,21.26,62.792,21.26s54.0366-8.8183,62.792-21.26c3.9585-5.6252,7.9251-12.4845,10.1318-20.4579,2.7785-10.0395,4.7142-27.8214,4.7142-39.8214s-1.9357-29.7819-4.7142-39.8214c-2.2067-7.9733-6.1732-14.8326-10.1318-20.4579-8.7553-12.4418-51.0797-21.26-62.792-21.26h0Z"/>
  <path class="cls-25" d="M113.5,21.9655c12.991,0,51.3006,9.4737,59.8225,21.8889,4.871,7.0964,8.1778,13.8982,10.1095,20.7942,2.8008,9.9991,4.9128,27.4063,4.9128,40.4907s-2.1121,30.4916-4.9128,40.4907c-1.9316,6.896-5.2385,13.6978-10.1095,20.7942-8.522,12.4152-46.8315,21.8889-59.8225,21.8889s-51.3006-9.4737-59.8225-21.8889c-4.8711-7.0965-8.1779-13.8983-10.1095-20.7942-2.8008-9.999-4.9128-27.4062-4.9128-40.4907,0-4.6836.3475-15.5048.8091-20.286.3546-3.6718,1.5425-7.3699,3.2591-10.1461l.0987-.1597.0341-.1846c3.3224-17.9855,20.2477-31.2259,30.041-37.5176,13.8534-8.9001,30.1704-14.8798,40.6028-14.8798M113.5,20.9655c-19.9119,0-65.928,22.3641-71.6272,53.2157-1.6964,2.7435-3.0127,6.5243-3.4039,10.5759-.4564,4.7266-.8138,15.3965-.8138,20.3821,0,12.6,1.9997,30.2281,4.9499,40.7604,2.2866,8.1636,6.2379,15.2484,10.2479,21.0904,9.0401,13.1702,48.3491,22.323,60.647,22.323s51.6068-9.1528,60.647-22.323c4.01-5.842,7.9613-12.9268,10.248-21.0904,2.9501-10.5323,4.9499-28.1604,4.9499-40.7604s-1.9998-30.2281-4.9499-40.7604c-2.2867-8.1636-6.2379-15.2484-10.248-21.0903-9.0401-13.1702-48.3491-22.323-60.647-22.323h0Z"/>
  <path class="cls-13" d="M113.5,19.3448c12.1974,0,48.421,9.1437,57.6713,22.9428,4.7797,7.1301,8.2225,14.3431,10.2326,21.4386,2.9828,10.529,5.1478,27.9515,5.1478,41.4269s-2.165,30.8979-5.1478,41.4269c-2.0101,7.0955-5.4529,14.3085-10.2326,21.4386-9.2503,13.7991-45.474,22.9428-57.6713,22.9428s-48.421-9.1437-57.6714-22.9428c-4.7797-7.1301-8.2225-14.3431-10.2326-21.4386-2.9828-10.5289-5.1477-27.9514-5.1477-41.4269,0-5.39.3703-15.4109.8477-20.2526.2983-3.0257,1.3881-5.8598,2.3496-8.3603.2795-.727.55-1.4306.7917-2.1105,4.9771-14.0003,15.9735-27.8583,30.9636-39.0212,13.3055-9.9084,27.9042-16.0636,38.0992-16.0636M113.5,18.3448c-20.8601,0-58.9956,24.7809-70.005,55.7499-1.0973,3.0866-2.7959,6.6676-3.1942,10.7077-.4881,4.9507-.8525,15.1278-.8525,20.3507,0,13.2,2.0624,30.6748,5.1856,41.6994,2.3667,8.354,6.3011,15.6619,10.3641,21.7228,9.3184,13.9006,45.6185,23.386,58.502,23.386s49.1836-9.4854,58.502-23.386c4.063-6.061,7.9975-13.3688,10.3641-21.7228,3.1233-11.0247,5.1857-28.4995,5.1857-41.6994s-2.0624-30.6748-5.1857-41.6995c-2.3667-8.354-6.3011-15.6619-10.3641-21.7228-9.3184-13.9006-45.6185-23.386-58.502-23.386h0Z"/>
  <path class="cls-22" d="M113.5,16.7241c7.0702,0,18.8353,2.681,29.2759,6.6713,12.8102,4.896,22.1308,11.0491,26.2448,17.3258,4.7512,7.249,8.2352,14.6786,10.3553,22.0824,3.2196,11.2435,5.3827,28.268,5.3827,42.3632s-2.1631,31.1197-5.3827,42.3632c-2.1201,7.4039-5.6041,14.8335-10.3553,22.0824-4.114,6.2767-13.4345,12.4299-26.2448,17.3259-10.4406,3.9903-22.2057,6.6714-29.2759,6.6714s-18.8353-2.681-29.2759-6.6714c-12.8102-4.896-22.1308-11.0491-26.2448-17.3259-4.7511-7.2489-8.2352-14.6785-10.3553-22.0824-3.2196-11.2435-5.3827-28.268-5.3827-42.3633,0-5.3985.3639-15.03.8862-20.2192.3075-3.0556,1.3242-5.9632,2.2212-8.5285.2521-.721.497-1.4215.7188-2.1006,4.8681-14.9009,15.4127-29.4339,29.6913-40.9219,12.9758-10.4398,27.0846-16.6726,37.7411-16.6726M113.5,15.7241c-21.8083,0-57.7119,25.6213-68.3829,58.2839-1.0357,3.1702-2.579,6.811-2.9845,10.8395-.5208,5.1747-.8913,14.859-.8913,20.3194,0,13.8,2.1236,31.122,5.4213,42.6385,2.4468,8.5447,6.3629,16.0733,10.4803,22.3553,9.5907,14.6327,42.8879,24.449,56.357,24.449s46.7663-9.8164,56.357-24.449c4.1174-6.282,8.0335-13.8106,10.4803-22.3553,3.2977-11.5165,5.4213-28.8385,5.4213-42.6385s-2.1236-31.122-5.4213-42.6385c-2.4468-8.5447-6.3629-16.0733-10.4803-22.3553-9.5907-14.6327-42.8879-24.449-56.357-24.449h0Z"/>
  <path class="cls-15" d="M113.5,14.1035c7.2302,0,18.3351,2.7143,28.2911,6.9151,11.887,5.0155,20.7936,11.4566,25.0792,18.1369,4.7175,7.3536,8.2427,14.9996,10.4776,22.7257,3.4126,11.7975,5.6177,28.7936,5.6177,43.2997s-2.2051,31.5022-5.6177,43.2997c-2.2349,7.726-5.76,15.3721-10.4776,22.7257-4.2856,6.6803-13.1922,13.1214-25.0792,18.1369-9.956,4.2007-21.0609,6.9151-28.2911,6.9151s-18.3351-2.7143-28.2911-6.9151c-11.887-5.0154-20.7937-11.4566-25.0792-18.1369-4.7175-7.3537-8.2427-14.9997-10.4775-22.7257-3.4126-11.7975-5.6177-28.7936-5.6177-43.2997,0-5.3775.3536-14.6241.9248-20.1859.3187-3.1033,1.2665-6.0994,2.1027-8.7428.221-.6985.4365-1.3801.6353-2.0439,4.7366-15.8184,14.8231-31.0261,28.4015-42.8217,12.4578-10.8221,26.4396-17.2831,37.4013-17.2831M113.5,13.1035c-22.7564,0-56.4754,26.4693-66.7608,60.818-.9761,3.26-2.3622,6.9543-2.7747,10.9713-.5544,5.3986-.93,14.5902-.93,20.288,0,14.4,2.1836,31.5696,5.6571,43.5775,2.5269,8.7356,6.4234,16.4828,10.5964,22.9878,9.8577,15.3661,40.1573,25.512,54.212,25.512s44.3543-10.1458,54.212-25.512c4.1731-6.505,8.0696-14.2522,10.5965-22.9878,3.4735-12.0079,5.6571-29.1776,5.6571-43.5775s-2.1836-31.5696-5.6571-43.5776c-2.5269-8.7356-6.4234-16.4828-10.5965-22.9878-9.8577-15.3661-40.1573-25.512-54.212-25.512h0Z"/>
  <path class="cls-11" d="M113.5,11.4827c14.1936,0,41.2034,10.1703,51.2204,26.1072,4.6785,7.4433,8.2446,15.3056,10.5994,23.3685,3.61,12.3608,5.8527,29.3111,5.8527,44.2363s-2.2426,31.8755-5.8527,44.2363c-2.3548,8.0628-5.9209,15.9251-10.5994,23.3685-10.017,15.9369-37.0267,26.1072-51.2204,26.1072s-41.2034-10.1703-51.2204-26.1072c-4.6785-7.4433-8.2446-15.3057-10.5994-23.3685-3.6101-12.3608-5.8527-29.3111-5.8527-44.2363,0-6.2475.4141-14.9112.9633-20.1525.3335-3.1833,1.1815-6.1632,2.0016-9.0451.1836-.6454.3637-1.2784.5334-1.8983C59.4248,37.1982,91.252,11.4827,113.5,11.4827M113.5,10.4827c-23.7046,0-55.2794,27.3273-65.1387,63.3521-.9183,3.3554-2.1453,7.0974-2.565,11.1031-.5891,5.6223-.9688,14.3215-.9688,20.2567,0,15,2.2424,32.0177,5.8928,44.5166,2.6071,8.9267,6.4828,16.8906,10.7126,23.6203,10.1199,16.1007,37.4267,26.575,52.067,26.575s41.9471-10.4743,52.067-26.575c4.2299-6.7297,8.1056-14.6937,10.7126-23.6203,3.6504-12.4989,5.8928-29.5166,5.8928-44.5166s-2.2424-32.0177-5.8928-44.5166c-2.6071-8.9266-6.4828-16.8906-10.7126-23.6203-10.1199-16.1007-37.4267-26.575-52.067-26.575h0Z"/>
  <path class="cls-28" d="M113.5,8.8621c7.539,0,17.3781,2.7639,26.3193,7.3934,10.0073,5.1816,18.0873,12.2024,22.7515,19.7693,4.6337,7.5174,8.2407,15.5958,10.7209,24.0107,3.8119,12.9334,6.0877,29.8206,6.0877,45.173s-2.2758,32.2395-6.0877,45.1729c-2.4801,8.415-6.0872,16.4933-10.7209,24.0108-4.6642,7.5669-12.7442,14.5877-22.7515,19.7693-8.9412,4.6295-18.7802,7.3934-26.3193,7.3934s-17.3781-2.7639-26.3193-7.3934c-10.0073-5.1815-18.0873-12.2024-22.7515-19.7693-4.6337-7.5173-8.2407-15.5957-10.7209-24.0107-3.8119-12.9334-6.0877-29.8205-6.0877-45.1729,0-6.4261.4026-14.5113,1.0018-20.119.3557-3.3292,1.1584-6.4822,1.9347-9.5312.1348-.5297.2679-1.0525.3965-1.568,4.4161-17.7081,13.5713-34.2631,25.7791-46.6156,11.6272-11.765,25.0283-18.5126,36.7671-18.5126M113.5,7.8621c-24.6528,0-54.1174,28.1969-63.5165,65.8862-.862,3.4564-1.9285,7.2406-2.3553,11.2349-.6247,5.8459-1.0075,14.0527-1.0075,20.2253,0,15.6,2.3001,32.4662,6.1285,45.4557,2.6873,9.1179,6.5411,17.2967,10.8288,24.2527,10.3778,16.8362,34.6961,27.638,49.922,27.638s39.5442-10.8018,49.922-27.638c4.2877-6.956,8.1415-15.1349,10.8288-24.2528,3.8284-12.9894,6.1285-29.8556,6.1285-45.4556s-2.3-32.4662-6.1285-45.4557c-2.6873-9.1178-6.5411-17.2967-10.8288-24.2527-10.3778-16.8362-34.6961-27.638-49.922-27.638h0Z"/>
  <path class="cls-14" d="M113.5,6.2414c14.4698,0,35.8322,9.89,46.9214,28.2187,4.583,7.5748,8.2308,15.8691,10.8421,24.6525,4.0182,13.5157,6.3227,30.3221,6.3227,46.1097s-2.3045,32.594-6.3227,46.1097c-2.6113,8.7834-6.2591,17.0777-10.8421,24.6526-11.0893,18.3287-32.4516,28.2186-46.9214,28.2186s-35.8321-9.8899-46.9215-28.2187c-4.5829-7.5748-8.2308-15.8691-10.842-24.6526-4.0182-13.5157-6.3227-30.322-6.3227-46.1097,0-6.4994.3987-14.1958,1.0404-20.0857.3968-3.642,1.1878-7.1222,1.9528-10.4879l.1739-.7661c4.2319-18.6834,12.9153-35.9108,24.4506-48.5086,11.2973-12.3378,24.2488-19.1326,36.4685-19.1326M113.5,5.2414c-25.601,0-52.9835,29.0793-61.8944,68.4203-.8069,3.5625-1.7116,7.3837-2.1455,11.3667-.6613,6.0694-1.0463,13.784-1.0463,20.194,0,16.2,2.3567,32.9151,6.3642,46.3947,2.7676,9.3092,6.5985,17.7013,10.945,24.8852,10.6318,17.5724,31.9655,28.701,47.7771,28.701s37.1453-11.1286,47.777-28.701c4.3465-7.1839,8.1774-15.576,10.945-24.8852,4.0074-13.4797,6.3642-30.1947,6.3642-46.3947s-2.3567-32.915-6.3642-46.3947c-2.7676-9.3092-6.5986-17.7013-10.945-24.8852-10.6317-17.5724-31.9655-28.701-47.777-28.701h0Z"/>
  <path class="cls-10" d="M113.5,3.6207c16.3725,0,34.3652,11.7647,44.7724,29.2749,4.526,7.6151,8.2145,16.1252,10.9629,25.2939,4.2288,14.1075,6.5578,30.8156,6.5578,47.0466s-2.3289,32.9391-6.5577,47.0466c-2.7485,9.1688-6.437,17.6789-10.963,25.2939-10.4072,17.5103-28.3999,29.2749-44.7724,29.2749s-34.3652-11.7647-44.7724-29.2749c-4.526-7.615-8.2145-16.1251-10.9629-25.2939-4.2288-14.1075-6.5578-30.8156-6.5578-47.0466,0-6.6663.3832-13.7876,1.0789-20.0523.4548-4.0953,1.2304-8.0359,1.9216-11.4081C62.5396,33.1252,87.4758,3.6207,113.5,3.6207M113.5,2.6207c-26.5492,0-51.8726,29.9748-60.2723,70.9543-.7529,3.6733-1.4947,7.5268-1.9358,11.4985-.6989,6.2928-1.085,13.5152-1.085,20.1626,0,16.8,2.4124,33.3643,6.5999,47.3338,2.8479,9.5008,6.6551,18.1045,11.0612,25.5177,10.8821,18.3092,29.2349,29.764,45.6321,29.764s34.7499-11.4548,45.632-29.764c4.4061-7.4132,8.2132-16.0169,11.0612-25.5177,4.1874-13.9695,6.5999-30.5337,6.5999-47.3338s-2.4124-33.3643-6.5999-47.3337c-2.8479-9.5008-6.6551-18.1045-11.0612-25.5177-10.8821-18.3092-29.2349-29.764-45.632-29.764h0Z"/>
  <path class="cls-19" d="M113.5,1c16.0572,0,31.1946,10.7719,42.6236,30.3315,11.5277,19.7284,17.8764,45.9798,17.8764,73.9185s-6.3486,54.1901-17.8764,73.9185c-11.4291,19.5596-26.5665,30.3315-42.6236,30.3315s-31.1946-10.7719-42.6236-30.3315c-11.5277-19.7284-17.8764-45.9798-17.8764-73.9185C53,47.7663,80.1402,1,113.5,1M113.5,0c-33.9655,0-61.5,47.122-61.5,105.25,0,29.064,6.8836,55.3765,18.0129,74.423,11.1293,19.0465,26.5043,30.827,43.4871,30.827s32.3578-11.7805,43.4871-30.827c11.1293-19.0465,18.0129-45.359,18.0129-74.423s-6.8836-55.3765-18.0129-74.423C145.8578,11.7805,130.4828,0,113.5,0h0Z"/>
</svg>